<svg width="11" height="11" viewBox="0 0 11 11" fill="none" xmlns="http://www.w3.org/2000/svg">
<path d="M7.79126 2.5625C9.02762 2.5625 10.0413 3.57614 10.0413 4.8125C10.0413 5.34949 9.79286 5.9333 9.35083 6.53613C8.9125 7.13385 8.31718 7.70562 7.70435 8.20703C7.09398 8.70642 6.48045 9.12419 6.0188 9.41797C5.80901 9.55147 5.63082 9.65754 5.50024 9.73438C5.36959 9.65694 5.19148 9.54934 4.98169 9.41504C4.51991 9.11942 3.90664 8.69913 3.29614 8.19824C2.68314 7.69528 2.08717 7.12331 1.64868 6.52637C1.2061 5.92382 0.958252 5.34297 0.958252 4.8125C0.958252 3.57614 1.97189 2.5625 3.20825 2.5625C4.00068 2.5625 4.68937 2.95707 5.07837 3.56836L5.50024 4.23145L5.92212 3.56836C6.31109 2.95728 6.99907 2.56261 7.79126 2.5625Z" fill="white" stroke="#FF9401"/>
</svg>
